<svg width="24" height="24" viewBox="0 0 24 24" fill="none" xmlns="http://www.w3.org/2000/svg">
<path d="M23.09 16.2C16.76 10.61 7.23 10.61 0.909999 16.2C0.0699992 16.94 0.0699992 18.25 0.859999 19.04L2.06 20.24C2.77 20.95 3.9 21.01 4.68 20.39L6.65 18.82C7.12 18.45 7.4 17.88 7.4 17.27V14.7C10.38 13.73 13.61 13.72 16.6 14.7V17.28C16.6 17.88 16.88 18.45 17.35 18.83L19.31 20.39C20.1 21.01 21.22 20.95 21.93 20.24L23.13 19.04C23.93 18.25 23.92 16.94 23.09 16.2V16.2ZM6 9C6.55 9 7 8.55 7 8V6.43L11.24 10.67C11.63 11.06 12.26 11.06 12.65 10.67L18.31 5.01C18.7 4.62 18.7 3.99 18.31 3.6C17.92 3.21 17.29 3.21 16.9 3.6L11.95 8.55L8.4 5H10C10.55 5 11 4.55 11 4C11 3.45 10.55 3 10 3H6C5.45 3 5 3.45 5 4V8C5 8.55 5.45 9 6 9Z" fill="#E85343"/>
</svg>
